PathFileType	4	(X/Y/Z)	C:/Users/beibeiliu/ov580/test_trc\sequence.2_training_dense_left.trc
DataRate	CameraRate	NumFrames	NumMarkers	Units	OrigDataRate	OrigDataStartFrame	OrigNumFrames
120	120	19	19	mm	120	274	313
Frame#	Time	ThumbCMC			ThumbMCP			ThumbIP			ThumbTip			IndexMCP			IndexPIP			IndexTip			MiddleMCP			MiddlePIP			MiddleTip			RingMCP			RingPIP			RingTip			PinkyMCP			PinkyPIP			PinkyTip			BackHand1			BackHand2			BackHand3	
		X0	Y0	Z0	X1	Y1	Z1	X2	Y2	Z2	X3	Y3	Z3	X4	Y4	Z4	X5	Y5	Z5	X6	Y6	Z6	X7	Y7	Z7	X8	Y8	Z8	X9	Y9	Z9	X10	Y10	Z10	X11	Y11	Z11	X12	Y12	Z12	X13	Y13	Z13	X14	Y14	Z14	X15	Y15	Z15	X16	Y16	Z16	X17	Y17	Z17	X18	Y18	Z18	
273	2.275	-110.107	-22.618	18.7933	-93.8291	-29.9916	6.25277	-77.272	-30.9263	-12.7334	-62.1791	-32.4613	-18.9509	-99.3054	-26.6973	-46.2526	-91.3377	-32.4053	-67.3825	-83.2595	-35.2093	-89.4343	-123.063	-23.0946	-59.9079	-122.294	-25.1616	-81.0241	-114.552	-26.1585	-105.025	-145.72	-21.919	-59.205	-141.27	-23.8418	-75.6841	-141.116	-22.7148	-100.558	-164.014	-24.0533	-44.4172	-170.65	-24.4808	-64.4228	-169.623	-19.4876	-78.5272	-149.725	-7.58654	-13.9048	-151.731	-1.06246	10.6205	-127.478	-7.02242	0.0895323	
274	2.28333	-114.451	-23.2883	19.2461	-92.3616	-28.4011	7.80201	-74.2585	-29.2331	-9.90758	-61.0079	-31.2047	-16.6497	-105.056	-28.017	-49.3479	-96.3384	-33.0388	-68.4593	-88.0153	-35.7965	-91.3963	-124.333	-23.6341	-60.619	-118.601	-27.3545	-81.9915	-116.476	-27.805	-104.436	-148.194	-24.072	-58.0602	-146.608	-25.7222	-76.7234	-145.049	-25.8976	-98.1114	-168.995	-25.1788	-46.8384	-172.473	-27.079	-63.103	-174.383	-21.1019	-80.8916	-148.297	-10.7548	-15.377	-151.849	-2.89063	6.3692	-127.93	-5.89304	2.20066	
275	2.29167	-112.786	-20.9736	19.6475	-93.8444	-26.2335	7.46921	-76.5349	-26.6307	-10.0426	-60.0929	-27.4085	-20.1761	-102.932	-26.928	-48.2388	-93.9913	-33.3416	-70.6936	-88.0857	-35.0869	-90.3308	-126.693	-25.4795	-62.4844	-119.845	-28.8757	-83.7944	-122.896	-29.7296	-107.302	-146.254	-24.6476	-55.2778	-147.458	-26.5873	-77.9706	-144.045	-26.7449	-101.267	-166.77	-26.0273	-45.5904	-170.636	-27.9057	-63.5756	-175.122	-25.5606	-83.4054	-153.992	-11.3308	-16.4624	-157.199	-1.11793	5.19357	-128.066	-6.99759	-0.900748	
276	2.3	-118.288	-19.9348	19.8159	-95.6396	-23.9268	5.88545	-81.6013	-25.3511	-9.20623	-64.597	-24.535	-19.8252	-102.694	-26.8353	-51.4097	-98.2712	-30.8607	-66.4218	-90.9571	-35.1629	-87.4195	-127.246	-24.3525	-62.9209	-122.956	-28.6852	-82.6463	-121.162	-29.0555	-108.57	-150.788	-24.8858	-56.65	-150.02	-26.7622	-76.7355	-145.185	-27.6102	-97.4837	-170.213	-26.0178	-48.9987	-174.69	-27.6037	-61.7656	-177.563	-25.9976	-82.4607	-153.147	-8.90775	-16.7021	-157.595	-1.76302	5.31408	-129.467	-3.90154	-0.241455	
277	2.30833	-116.818	-18.095	21.3949	-98.3247	-22.3768	4.42182	-81.5754	-23.5522	-11.0704	-65.0099	-23.0311	-19.2313	-104.183	-25.083	-52.095	-95.8604	-29.9438	-69.9123	-87.9169	-32.8563	-91.1801	-129.353	-22.9719	-60.5181	-125.499	-27.1278	-80.5374	-122.513	-28.6569	-109.616	-147.996	-22.8919	-57.3107	-151.418	-25.6164	-75.9812	-143.858	-27.4182	-99.1316	-170.262	-25.5656	-46.4622	-170.362	-27.4432	-65.2806	-178.76	-23.7478	-81.6974	-157.182	-9.24116	-16.7985	-158.524	-0.796791	7.40039	-132.533	-4.79835	-3.37511	
278	2.31667	-116.162	-16.0436	21.2427	-93.6846	-19.4143	5.89761	-78.6787	-19.7685	-10.923	-62.0541	-19.7262	-18.5517	-102.968	-22.6357	-51.6904	-96.8535	-28.6498	-70.697	-88.9386	-30.1107	-90.3207	-126.092	-21.6201	-61.1265	-124.4	-25.9261	-83.0021	-122.836	-28.2714	-107.562	-151.209	-22.7074	-56.7835	-150.678	-25.8065	-78.7005	-147.433	-26.3239	-97.4837	-173.121	-24.7888	-44.9059	-170.78	-26.6639	-66.3683	-174.657	-24.7398	-80.8856	-158.127	-8.98074	-16.9445	-158.553	1.8571	8.0515	-130.397	-3.13555	-3.1206	
279	2.325	-115.122	-14.3118	19.0407	-98.4532	-19.8108	3.61927	-76.885	-18.2371	-11.5172	-63.1169	-18.5007	-18.7926	-104.827	-21.18	-52.9761	-95.61	-26.6761	-69.0084	-89.6011	-29.2048	-92.446	-128.707	-21.7824	-64.0931	-125.118	-25.7941	-84.1982	-123.22	-26.472	-107.841	-150.92	-22.0202	-58.9979	-149.996	-24.8703	-80.4746	-145.5	-26.5596	-99.6338	-172.045	-25.0976	-46.5266	-173.935	-25.7418	-60.9981	-179.377	-24.4691	-79.5827	-152.568	-7.33826	-18.7956	-161.728	2.62248	5.2207	-132.879	0.901916	-0.454487	
280	2.33333	-116.054	-12.843	20.4128	-95.858	-16.682	4.19791	-82.5593	-17.0756	-13.7929	-64.9694	-16.6451	-17.2478	-106.692	-19.486	-50.3634	-101.322	-24.3534	-69.4487	-91.4361	-27.2824	-88.1643	-125.813	-20.6252	-61.7741	-125.315	-25.2097	-80.2013	-119.392	-26.3238	-107.131	-150.755	-21.1093	-55.613	-146.671	-24.6775	-81.0169	-147.909	-25.9101	-100.949	-171.267	-24.358	-46.4395	-174.186	-26.448	-64.2331	-177.434	-24.5784	-81.368	-155.75	-5.95402	-17.8504	-164.308	2.69829	8.33068	-135.906	0.692933	-0.392184	
281	2.34167	-118.121	-12.5582	17.3381	-93.9575	-13.9801	3.46611	-81.2408	-15.7365	-10.1976	-66.7357	-14.5626	-21.4199	-107.071	-18.7122	-49.9552	-96.299	-23.0583	-71.1166	-88.9986	-26.7138	-90.7109	-126.116	-19.3525	-63.9378	-123.516	-25.2072	-84.6969	-123.321	-27.129	-106.537	-148.015	-21.1432	-59.5541	-149.313	-24.3073	-78.3822	-142.732	-25.2605	-100.846	-172.834	-24.7063	-44.2806	-170.536	-26.4542	-66.2902	-177.237	-25.3523	-84.4732	-154.622	-6.88806	-18.0492	-162.231	2.32271	7.2753	-134.826	0.394309	-1.33601	
282	2.35	-113.578	-11.0421	16.7612	-97.1809	-15.7019	5.92263	-79.1858	-14.4798	-7.71872	-62.5446	-13.3968	-19.1545	-103.597	-18.1139	-52.0604	-95.8694	-23.7297	-68.1945	-88.6995	-27.2208	-92.3959	-129.296	-20.1855	-64.0793	-121.701	-23.8148	-82.7347	-121.843	-26.4287	-104.553	-146.586	-20.2495	-59.3431	-145.473	-23.6721	-79.3019	-147.434	-24.5815	-102.022	-168.959	-23.6573	-48.3797	-173.625	-26.1458	-66.2341	-175.6	-24.8899	-83.4758	-153.391	-3.56002	-18.0182	-163.78	1.64903	6.81105	-130.716	2.83528	-1.31089	
283	2.35833	-117.296	-12.0959	18.4153	-95.3104	-14.6043	2.82037	-80.2618	-14.9475	-10.5981	-63.9166	-13.477	-17.0507	-105.006	-17.7763	-48.3175	-97.8819	-23.1917	-66.6479	-90.4427	-26.6239	-91.0791	-126.36	-19.4066	-62.5366	-124.87	-24.0347	-81.2149	-122.534	-25.2301	-104.744	-150.654	-20.3511	-57.5163	-149.066	-23.7137	-79.1066	-146.374	-24.9784	-99.5684	-170.849	-24.294	-47.5283	-174.863	-26.7561	-62.8052	-175.783	-22.4951	-80.0609	-158.265	-3.86302	-16.1898	-158.221	2.38526	8.96656	-130.356	2.41336	-1.14179	
284	2.36667	-119.12	-13.3326	19.3455	-97.0271	-15.8612	6.74581	-80.1444	-14.4938	-8.5212	-66.4467	-13.7107	-21.304	-108.03	-17.0734	-47.1277	-99.0347	-23.3869	-72.5392	-88.9389	-26.3406	-90.7986	-128.246	-18.3109	-59.3507	-124.153	-22.8538	-79.1874	-120.334	-24.5687	-104.538	-148.219	-20.8684	-57.3238	-147.675	-23.0818	-76.7635	-144.031	-24.2843	-97.574	-167.938	-23.2636	-48.6064	-171.995	-25.6192	-61.2448	-178.375	-23.6949	-83.8757	-154.429	-5.60603	-16.7925	-164.993	3.64359	9.82139	-130.781	1.53081	0.989082	
285	2.375	-119.132	-12.6216	18.0127	-95.2745	-14.0803	6.95542	-82.2435	-15.4584	-9.04136	-64.8324	-13.1154	-14.8488	-107.523	-17.7667	-51.4116	-94.7886	-22.7473	-70.4957	-89.4346	-25.2778	-88.9115	-129.849	-18.6779	-62.9293	-123.168	-23.276	-83.0147	-120.677	-24.3264	-105.613	-150.46	-20.261	-54.7409	-146.301	-23.1978	-77.0471	-147.935	-24.3951	-98.8787	-168.394	-22.9855	-47.0132	-175.041	-25.6542	-63.8722	-176.99	-24.1629	-80.7533	-156.611	-3.46245	-15.0486	-163.003	1.59771	5.94211	-134.112	2.2074	2.59148	
286	2.38333	-119.022	-12.2193	15.9206	-97.7187	-15.6673	7.72675	-80.1535	-14.1418	-10.578	-66.3493	-12.4594	-19.2216	-106.25	-17.3124	-51.8054	-98.0396	-22.1797	-69.1851	-93.4927	-25.0176	-87.993	-130.861	-17.5096	-58.6228	-126.283	-22.8826	-79.7221	-123.637	-25.3034	-107.212	-146.891	-18.9139	-58.5026	-149.426	-22.5747	-78.7132	-147.994	-24.238	-100.656	-172.127	-23.1785	-45.2495	-172.543	-25.0581	-61.4846	-176.885	-22.708	-81.7388	-157.167	-5.8496	-17.6639	-159.502	3.12839	8.15108	-132.829	2.18325	3.19754	
287	2.39167	-118.743	-11.8049	19.5952	-98.5552	-15.0589	3.17922	-78.9215	-13.7558	-10.1853	-64.1068	-12.7947	-19.4823	-105.683	-17.3138	-51.3892	-101.051	-21.7146	-68.4702	-90.4612	-25.8898	-91.888	-130.559	-17.4451	-58.7771	-124.129	-22.705	-84.0326	-122.942	-25.7348	-106.054	-149.48	-20.3588	-56.2534	-147.822	-22.3254	-75.8232	-146.801	-23.2756	-98.7321	-171.836	-23.498	-44.2887	-173.296	-26.0332	-62.6416	-174.802	-23.9859	-79.6411	-158.123	-3.86505	-18.1802	-163.361	4.13271	10.5555	-132.803	2.28781	2.25267	
288	2.4	-119.797	-13.1	18.8605	-95.3205	-15.0576	8.04041	-79.5393	-14.1259	-10.2915	-67.7291	-14.6553	-16.9675	-109.743	-17.1096	-50.0943	-99.7913	-21.3787	-67.5789	-92.367	-24.7293	-88.7002	-132.037	-18.4992	-62.1887	-128.068	-23.2063	-82.0113	-122.775	-24.5233	-108.213	-154.158	-19.9705	-55.7457	-147.397	-23.6333	-74.9928	-146.237	-24.5987	-95.3423	-172.641	-23.2079	-44.6913	-174.554	-26.2742	-64.3968	-177.176	-21.7772	-82.2084	-159.579	-3.49445	-13.6138	-162.288	1.73836	10.3976	-134.621	0.93601	-1.45714	
289	2.40833	-118.946	-11.4948	21.3326	-96.3697	-14.0742	8.73482	-79.4185	-12.7407	-10.4526	-65.1774	-11.8672	-14.3434	-107.843	-16.8962	-45.8455	-101.273	-22.0898	-70.4759	-94.2551	-24.4659	-89.7448	-131.323	-17.9633	-57.8562	-128.021	-21.3724	-79.1545	-124.135	-23.829	-109.275	-149.607	-19.3866	-57.5726	-147.02	-22.2483	-76.83	-150.512	-22.9894	-98.4553	-172.015	-23.8579	-43.7683	-173.134	-24.7454	-59.4482	-177.21	-21.8616	-81.7229	-157.757	-5.82225	-16.1245	-162.806	4.43666	9.32664	-137.282	3.07587	0.707217	
290	2.41667	-117.727	-11.4214	21.397	-94.9625	-12.0689	6.41346	-78.5277	-11.4012	-10.9675	-65.1394	-11.0812	-19.6766	-107.748	-16.5212	-45.2063	-100.572	-20.9299	-70.5706	-92.7765	-23.1372	-86.9627	-130.221	-17.9194	-61.957	-127.588	-21.32	-81.9811	-120.853	-22.7686	-106.117	-149.987	-19.8263	-57.5471	-149.452	-21.869	-77.0199	-149.334	-22.3042	-98.4368	-172.512	-22.9017	-42.1481	-177.65	-25.236	-63.533	-180.643	-23.6871	-78.4466	-155.729	-2.80067	-11.596	-162.729	4.1712	9.02296	-136.38	0.473703	-1.83017	
291	2.425	-117.223	-9.72591	19.5079	-99.434	-13.8007	4.7183	-81.2469	-12.2365	-9.77899	-67.8718	-12.4939	-14.3859	-104.448	-16.2895	-49.4002	-101.95	-20.0854	-69.6579	-94.3398	-22.7187	-88.0326	-129.333	-15.9603	-58.9898	-128.529	-20.3151	-79.4611	-121.55	-23.3058	-104.049	-153.442	-19.2821	-55.1603	-153.527	-22.7764	-74.0272	-150.133	-22.0073	-97.7701	-175.557	-22.6091	-47.3859	-175.003	-25.6034	-60.7689	-181.024	-23.3591	-77.1479	-161.203	-5.29522	-14.9591	-166.604	3.8789	9.4256	-135.799	3.56019	1.34396	
